<mxfile host="app.diagrams.net" modified="2024-06-14T17:56:19.725Z" agent="Mozilla/5.0 (Macintosh; Intel Mac OS X 10_15_7) AppleWebKit/537.36 (KHTML, like Gecko) Chrome/125.0.0.0 Safari/537.36 Edg/125.0.0.0" version="24.4.9" etag="vvlH4Hw0Q_Cn1ky9oKuD" type="github">
  <diagram name="Page-1" id="Zv-zzMhKJMYEM_GgnkD9">
    <mxGraphModel>
      <root>
        <mxCell id="0" />
        <mxCell id="1" parent="0" />
      </root>
    </mxGraphModel>
  </diagram>
</mxfile>
